<?xml version="1.0" standalone="no"?>
<!DOCTYPE svg PUBLIC "-//W3C//DTD SVG 20010904//EN"
 "http://www.w3.org/TR/2001/REC-SVG-20010904/DTD/svg10.dtd">
<svg version="1.0" xmlns="http://www.w3.org/2000/svg"
 width="564.000000pt" height="423.000000pt" viewBox="0 0 564.000000 423.000000"
 preserveAspectRatio="xMidYMid meet">

<g transform="translate(0.000000,423.000000) scale(0.100000,-0.100000)"
fill="#000000" stroke="none">
<path d="M1341 3135 c-85 -24 -151 -64 -221 -135 -73 -74 -120 -148 -158 -248
-23 -60 -26 -80 -24 -186 l1 -119 -33 -31 c-18 -17 -60 -53 -95 -79 -102 -79
-122 -135 -81 -226 30 -65 26 -119 -11 -170 -17 -24 -29 -44 -27 -45 2 -2 35
-11 73 -21 99 -26 252 -106 340 -176 91 -74 161 -164 224 -290 50 -102 59
-106 75 -34 9 44 -11 356 -29 452 -16 79 -15 84 4 128 11 25 24 45 28 45 4 0
32 22 61 49 67 61 67 78 1 207 -43 84 -50 105 -46 138 5 34 1 45 -25 75 -27
30 -30 40 -25 80 7 61 41 91 104 91 40 0 50 -5 79 -37 48 -52 65 -39 79 55 13
82 26 97 95 108 63 9 91 21 122 51 15 15 30 24 33 21 3 -3 10 -33 17 -68 l11
-63 18 24 c50 64 63 143 34 198 -34 66 -160 144 -311 191 -91 29 -239 36 -313
15z"/>
<path d="M4720 3069 c-91 -10 -502 -52 -915 -94 -412 -42 -756 -78 -763 -80
-10 -4 -12 -169 -10 -802 l3 -798 50 -3 50 -2 23 45 c26 54 27 73 5 105 l-16
25 27 -25 c24 -22 27 -31 22 -65 -12 -95 -13 -90 16 -93 35 -4 52 27 45 80 -5
34 -3 37 10 27 10 -9 14 -27 11 -61 -2 -27 1 -48 7 -48 6 0 145 -9 310 -20
165 -11 308 -20 318 -20 14 0 17 -10 17 -66 l0 -66 -32 5 c-66 12 -285 17
-381 10 -90 -7 -97 -9 -85 -25 11 -15 63 -21 343 -42 479 -37 445 -32 445 -68
l0 -31 58 6 c31 4 146 12 255 19 l197 12 0 27 c0 25 -4 28 -42 33 -41 6 -452
36 -483 36 -12 0 -15 14 -15 65 l0 65 33 0 c17 0 169 -9 337 -20 168 -11 329
-20 358 -20 l52 0 0 949 0 949 -22 6 c-29 7 -29 7 -228 -15z m-127 -666 c-3
-10 -24 -56 -45 -103 l-39 -85 20 -40 c32 -63 71 -168 66 -173 -2 -3 -19 -1
-36 4 -25 7 -34 19 -52 64 -12 30 -26 55 -31 55 -5 0 -18 -24 -29 -52 -18 -49
-22 -53 -53 -53 -19 0 -34 5 -34 10 0 6 5 10 10 10 6 0 10 6 10 14 0 8 14 44
30 81 17 37 30 72 30 79 0 6 -15 50 -34 98 l-34 86 24 6 c33 9 40 3 60 -49 9
-25 20 -45 24 -45 5 0 18 25 31 55 21 51 25 55 56 55 27 0 31 -3 26 -17z
m-293 -188 l0 -185 -30 0 -30 0 0 179 c0 197 -5 179 53 190 4 0 7 -82 7 -184z
m-220 20 l0 -145 50 0 c47 0 50 -2 50 -25 0 -24 -2 -25 -75 -25 l-75 0 -1 43
c0 23 -1 97 -2 164 -2 127 -2 128 41 132 9 1 12 -34 12 -144z m-100 111 c0
-21 -6 -24 -49 -30 -47 -6 -49 -8 -53 -42 -5 -43 -4 -44 42 -44 34 0 37 -2 33
-24 -4 -20 -12 -26 -41 -28 l-36 -3 3 -67 c2 -67 2 -68 -23 -68 l-26 0 0 159
0 160 48 4 c107 8 102 9 102 -17z m-192 -18 c-2 -17 -11 -24 -30 -26 l-27 -3
-3 -132 c-3 -115 -5 -132 -20 -135 -16 -3 -18 10 -20 130 l-3 133 -25 0 c-18
0 -26 6 -28 22 -3 23 12 27 116 31 40 2 43 0 40 -20z m-198 -12 c0 -22 -5 -25
-42 -28 l-43 -3 1 -40 c1 -38 3 -40 33 -40 25 0 31 -4 31 -22 0 -17 -7 -22
-32 -25 -31 -3 -33 -6 -36 -45 l-3 -43 46 0 c42 0 46 -2 43 -22 -3 -20 -10
-23 -60 -26 l-58 -3 0 155 0 155 53 4 c28 2 55 4 60 5 4 1 7 -9 7 -22z m-180
-156 c0 -152 -1 -160 -20 -160 -15 0 -23 14 -40 73 -32 109 -35 110 -38 10 -2
-85 -4 -93 -22 -93 -19 0 -20 8 -20 161 l0 160 22 -3 c19 -2 27 -17 49 -92 30
-103 44 -99 34 9 -7 77 -3 95 21 95 12 0 14 -27 14 -160z"/>
<path d="M1793 2703 c-26 -10 -12 -18 33 -18 39 -1 43 1 28 12 -18 13 -39 15
-61 6z"/>
<path d="M1812 2588 c-13 -13 -16 -68 -4 -68 15 0 32 24 32 46 0 28 -13 37
-28 22z"/>
<path d="M1480 2535 c19 -19 36 -35 39 -35 3 0 -10 16 -29 35 -19 19 -36 35
-39 35 -3 0 10 -16 29 -35z"/>
<path d="M1660 2371 c0 -11 -15 -31 -32 -46 -21 -16 -26 -23 -13 -19 11 4 25
11 32 17 8 6 21 2 39 -12 15 -12 36 -21 48 -20 17 1 15 3 -8 9 -46 14 -66 38
-56 66 6 15 6 24 0 24 -6 0 -10 -9 -10 -19z"/>
<path d="M2410 2003 c0 -5 10 -19 21 -33 l20 -25 -16 33 c-15 30 -25 41 -25
25z"/>
<path d="M2362 1965 c27 -50 28 -51 28 -34 0 8 -11 28 -25 44 l-25 30 22 -40z"/>
<path d="M2290 1945 c0 -5 9 -21 20 -35 11 -14 20 -20 20 -15 0 6 -9 21 -20
35 -11 14 -20 21 -20 15z"/>
<path d="M1613 1873 c9 -2 23 -2 30 0 6 3 -1 5 -18 5 -16 0 -22 -2 -12 -5z"/>
<path d="M1688 1863 c7 -3 16 -2 19 1 4 3 -2 6 -13 5 -11 0 -14 -3 -6 -6z"/>
<path d="M1866 1815 c10 -8 24 -14 29 -14 6 0 1 6 -9 14 -11 8 -24 15 -30 15
-5 0 -1 -7 10 -15z"/>
<path d="M2256 1783 c9 -38 14 -42 14 -10 0 14 -5 29 -10 32 -7 4 -8 -3 -4
-22z"/>
<path d="M2000 1686 c0 -2 8 -10 18 -17 15 -13 16 -12 3 4 -13 16 -21 21 -21
13z"/>
<path d="M2030 1645 c0 -5 5 -17 10 -25 5 -8 10 -10 10 -5 0 6 -5 17 -10 25
-5 8 -10 11 -10 5z"/>
<path d="M2181 1611 c-9 -6 -12 -17 -7 -32 3 -13 9 -60 12 -103 12 -141 22
-138 23 7 1 75 -2 137 -6 137 -5 0 -14 -4 -22 -9z"/>
<path d="M936 1550 c5 -8 23 -35 42 -59 106 -139 177 -390 184 -648 2 -57 7
-103 12 -103 12 0 -1 198 -20 320 -24 153 -62 264 -130 380 -31 53 -110 152
-88 110z"/>
<path d="M2101 1474 c0 -11 3 -14 6 -6 3 7 2 16 -1 19 -3 4 -6 -2 -5 -13z"/>
<path d="M2155 1248 c4 -13 8 -33 9 -45 0 -11 4 -19 7 -17 17 10 18 -30 2 -43
-17 -13 -16 -13 3 -4 20 10 24 6 50 -54 15 -36 29 -64 31 -62 3 3 -35 101 -81
210 -18 40 -33 51 -21 15z"/>
<path d="M1507 1174 c-3 -6 3 -34 14 -63 10 -29 22 -71 25 -94 2 -23 11 -64
19 -92 7 -27 24 -86 36 -130 24 -86 76 -205 90 -205 5 0 9 -7 9 -15 0 -12 16
-15 86 -15 l85 0 -23 23 c-13 12 -45 47 -73 77 -27 30 -54 54 -58 52 -5 -1 -6
2 -3 7 4 5 -7 33 -24 61 -41 69 -61 120 -53 133 4 6 1 7 -7 2 -10 -6 -12 -4
-7 9 4 9 3 15 -2 12 -12 -8 -65 130 -56 145 5 7 4 10 -3 5 -12 -7 -25 23 -19
45 2 8 2 10 -1 5 -3 -5 -10 4 -16 20 -7 16 -15 24 -19 18z"/>
<path d="M1421 1144 c0 -11 3 -14 6 -6 3 7 2 16 -1 19 -3 4 -6 -2 -5 -13z"/>
<path d="M1481 874 c0 -11 3 -14 6 -6 3 7 2 16 -1 19 -3 4 -6 -2 -5 -13z"/>
<path d="M1668 873 c7 -3 16 -2 19 1 4 3 -2 6 -13 5 -11 0 -14 -3 -6 -6z"/>
<path d="M3590 700 c-9 -6 -10 -10 -3 -10 6 0 15 5 18 10 8 12 4 12 -15 0z"/>
<path d="M3475 650 c-3 -6 1 -7 9 -4 18 7 21 14 7 14 -6 0 -13 -4 -16 -10z"/>
<path d="M3861 652 c-1 -7 -22 -22 -48 -33 -60 -26 -88 -38 -186 -83 -44 -20
-83 -36 -88 -36 -5 0 -9 -4 -9 -9 0 -9 39 7 175 69 114 52 139 60 146 49 5 -8
8 -8 13 0 4 6 1 11 -6 11 -10 0 -10 2 1 9 7 5 11 15 8 22 -4 11 -6 11 -6 1z"/>
<path d="M3340 595 c-14 -8 -20 -14 -14 -15 5 0 19 7 30 15 24 18 16 19 -16 0z"/>
<path d="M1511 584 c0 -11 3 -14 6 -6 3 7 2 16 -1 19 -3 4 -6 -2 -5 -13z"/>
<path d="M3260 560 c-8 -5 -10 -10 -5 -10 6 0 17 5 25 10 8 5 11 10 5 10 -5 0
-17 -5 -25 -10z"/>
<path d="M3200 535 c-14 -8 -20 -14 -15 -14 6 0 21 6 35 14 14 8 21 14 15 14
-5 0 -21 -6 -35 -14z"/>
<path d="M3685 530 c-3 -6 1 -7 9 -4 18 7 21 14 7 14 -6 0 -13 -4 -16 -10z"/>
<path d="M3110 468 c0 -15 5 -30 12 -34 7 -4 8 -3 4 4 -12 20 5 14 56 -19 32
-21 45 -35 37 -39 -8 -6 -6 -11 9 -19 30 -16 39 -13 16 5 -19 15 -18 15 4 11
33 -7 27 6 -10 22 -37 16 -97 57 -115 80 -11 13 -13 11 -13 -11z"/>
<path d="M3432 451 c-35 -15 -68 -34 -75 -41 -10 -10 -8 -10 10 -1 33 17 48
14 32 -6 -13 -15 -12 -15 10 -4 17 9 20 15 11 21 -9 5 -9 9 -1 14 6 4 11 4 11
1 0 -4 7 1 16 10 11 11 26 14 43 10 18 -4 22 -3 12 4 -11 7 -10 10 5 14 12 3
13 5 4 6 -8 0 -43 -12 -78 -28z"/>
<path d="M3303 390 c-34 -14 -28 -21 7 -9 17 6 30 13 30 15 0 6 -12 4 -37 -6z"/>
<path d="M3310 365 c-14 -8 -20 -14 -14 -15 5 0 19 7 30 15 24 18 16 19 -16 0z"/>
</g>
</svg>
